<svg width="65" height="65" viewBox="0 0 65 65" fill="none" xmlns="http://www.w3.org/2000/svg">
<path d="M40.625 61.6147H24.375C9.66874 61.6147 3.38541 55.3313 3.38541 40.6251V24.3751C3.38541 9.66883 9.66874 3.3855 24.375 3.3855H40.625C55.3312 3.3855 61.6146 9.66883 61.6146 24.3751V40.6251C61.6146 55.3313 55.3312 61.6147 40.625 61.6147ZM24.375 7.448C11.8896 7.448 7.44791 11.8897 7.44791 24.3751V40.6251C7.44791 53.1105 11.8896 57.5522 24.375 57.5522H40.625C53.1104 57.5522 57.5521 53.1105 57.5521 40.6251V24.3751C57.5521 11.8897 53.1104 7.448 40.625 7.448H24.375Z" fill="#292D32"/>
<path d="M23.5083 41.5188C22.3708 41.5188 21.3146 41.248 20.3938 40.7334C18.1458 39.4605 16.9271 36.9417 16.9271 33.6376V6.6084C16.9271 5.49798 17.8479 4.57715 18.9583 4.57715C20.0688 4.57715 20.9896 5.49798 20.9896 6.6084V33.6376C20.9896 35.398 21.5042 36.698 22.3979 37.1855C23.3458 37.7271 24.8083 37.4563 26.4063 36.5084L29.9813 34.3688C31.4438 33.5021 33.5292 33.5021 34.9917 34.3688L38.5667 36.5084C40.1917 37.4834 41.6542 37.7271 42.575 37.1855C43.4688 36.6709 43.9833 35.3709 43.9833 33.6376V6.6084C43.9833 5.49798 44.9042 4.57715 46.0146 4.57715C47.125 4.57715 48.0458 5.49798 48.0458 6.6084V33.6376C48.0458 36.9417 46.8271 39.4605 44.5792 40.7334C42.3313 42.0063 39.3792 41.7355 36.4813 40.0021L32.9063 37.8626C32.7438 37.7542 32.2292 37.7542 32.0667 37.8626L28.4917 40.0021C26.8125 41.0042 25.0792 41.5188 23.5083 41.5188Z" fill="#292D32"/>
<path d="M40.625 61.6147H24.375C9.66874 61.6147 3.38541 55.3313 3.38541 40.6251V24.3751C3.38541 9.66883 9.66874 3.3855 24.375 3.3855H40.625C55.3312 3.3855 61.6146 9.66883 61.6146 24.3751V40.6251C61.6146 55.3313 55.3312 61.6147 40.625 61.6147ZM24.375 7.448C11.8896 7.448 7.44791 11.8897 7.44791 24.3751V40.6251C7.44791 53.1105 11.8896 57.5522 24.375 57.5522H40.625C53.1104 57.5522 57.5521 53.1105 57.5521 40.6251V24.3751C57.5521 11.8897 53.1104 7.448 40.625 7.448H24.375Z" fill="#292D32"/>
<path d="M23.5083 41.5188C22.3708 41.5188 21.3146 41.248 20.3938 40.7334C18.1458 39.4605 16.9271 36.9417 16.9271 33.6376V6.6084C16.9271 5.49798 17.8479 4.57715 18.9583 4.57715C20.0688 4.57715 20.9896 5.49798 20.9896 6.6084V33.6376C20.9896 35.398 21.5042 36.698 22.3979 37.1855C23.3458 37.7271 24.8083 37.4563 26.4063 36.5084L29.9813 34.3688C31.4438 33.5021 33.5292 33.5021 34.9917 34.3688L38.5667 36.5084C40.1917 37.4834 41.6542 37.7271 42.575 37.1855C43.4688 36.6709 43.9833 35.3709 43.9833 33.6376V6.6084C43.9833 5.49798 44.9042 4.57715 46.0146 4.57715C47.125 4.57715 48.0458 5.49798 48.0458 6.6084V33.6376C48.0458 36.9417 46.8271 39.4605 44.5792 40.7334C42.3313 42.0063 39.3792 41.7355 36.4813 40.0021L32.9063 37.8626C32.7438 37.7542 32.2292 37.7542 32.0667 37.8626L28.4917 40.0021C26.8125 41.0042 25.0792 41.5188 23.5083 41.5188Z" fill="#292D32"/>
</svg>
