<svg width="90" height="90" viewBox="0 0 90 90" fill="none" xmlns="http://www.w3.org/2000/svg">
<path d="M77.325 49.0125C75.9 49.0125 74.7 47.925 74.5125 46.5C73.6125 38.025 69.0375 30.3375 61.9875 25.4625C60.7125 24.5625 60.4125 22.8375 61.275 21.5625C62.175 20.2875 63.9375 19.9875 65.175 20.85C73.575 26.6625 78.975 35.8125 80.0625 45.9C80.2125 47.4375 79.125 48.825 77.55 49.0125C77.5125 49.0125 77.4 49.0125 77.325 49.0125Z" fill="#292D32"/>
<path d="M13.0875 49.2C12.975 49.2 12.9 49.2 12.7875 49.2C11.25 49.0125 10.125 47.625 10.275 46.0875C11.2875 36 16.65 26.8875 24.9375 21C26.2125 20.1 27.975 20.4 28.875 21.675C29.775 22.95 29.475 24.7125 28.2 25.6125C21.225 30.525 16.725 38.2125 15.8625 46.6875C15.75 48.1125 14.5125 49.2 13.0875 49.2Z" fill="#292D32"/>
<path d="M45.225 84.7875C39.675 84.7875 34.3875 83.5125 29.4375 81.0375C28.05 80.325 27.4875 78.6375 28.2 77.25C28.9125 75.8625 30.6 75.3 31.9875 76.0125C40.0875 80.1 49.8375 80.175 58.0125 76.2375C59.4 75.5625 61.0875 76.1625 61.7625 77.55C62.4375 78.9375 61.8375 80.625 60.45 81.3C55.65 83.625 50.55 84.7875 45.225 84.7875Z" fill="#292D32"/>
<path d="M45.225 31.65C37.9125 31.65 31.9875 25.725 31.9875 18.4125C31.9875 11.1 37.9125 5.17499 45.225 5.17499C52.5375 5.17499 58.4625 11.1 58.4625 18.4125C58.4625 25.725 52.5 31.65 45.225 31.65ZM45.225 10.8375C41.025 10.8375 37.6125 14.25 37.6125 18.45C37.6125 22.65 41.025 26.0625 45.225 26.0625C49.425 26.0625 52.8375 22.65 52.8375 18.45C52.8375 14.25 49.3875 10.8375 45.225 10.8375Z" fill="#292D32"/>
<path d="M18.1125 77.5125C10.8 77.5125 4.875 71.5875 4.875 64.275C4.875 57 10.8 51.0375 18.1125 51.0375C25.425 51.0375 31.35 56.9625 31.35 64.275C31.35 71.55 25.425 77.5125 18.1125 77.5125ZM18.1125 56.6625C13.9125 56.6625 10.5 60.075 10.5 64.275C10.5 68.475 13.9125 71.8875 18.1125 71.8875C22.3125 71.8875 25.725 68.475 25.725 64.275C25.725 60.075 22.3125 56.6625 18.1125 56.6625Z" fill="#292D32"/>
<path d="M71.8875 77.5125C64.575 77.5125 58.65 71.5875 58.65 64.275C58.65 57 64.575 51.0375 71.8875 51.0375C79.2 51.0375 85.125 56.9625 85.125 64.275C85.0875 71.55 79.1625 77.5125 71.8875 77.5125ZM71.8875 56.6625C67.6875 56.6625 64.275 60.075 64.275 64.275C64.275 68.475 67.6875 71.8875 71.8875 71.8875C76.0875 71.8875 79.5 68.475 79.5 64.275C79.4625 60.075 76.0875 56.6625 71.8875 56.6625Z" fill="#292D32"/>
</svg>
