<svg width="65" height="65" viewBox="0 0 65 65" fill="none" xmlns="http://www.w3.org/2000/svg">
<path d="M29.7917 56.198C15.2208 56.198 3.38542 44.3626 3.38542 29.7917C3.38542 15.2209 15.2208 3.3855 29.7917 3.3855C44.3625 3.3855 56.1979 15.2209 56.1979 29.7917C56.1979 44.3626 44.3625 56.198 29.7917 56.198ZM29.7917 7.448C17.4688 7.448 7.44792 17.4688 7.44792 29.7917C7.44792 42.1147 17.4688 52.1355 29.7917 52.1355C42.1146 52.1355 52.1354 42.1147 52.1354 29.7917C52.1354 17.4688 42.1146 7.448 29.7917 7.448Z" fill="#292D32"/>
<path d="M36.5625 31.823H23.0208C21.9104 31.823 20.9896 30.9022 20.9896 29.7917C20.9896 28.6813 21.9104 27.7605 23.0208 27.7605H36.5625C37.6729 27.7605 38.5938 28.6813 38.5938 29.7917C38.5938 30.9022 37.6729 31.823 36.5625 31.823Z" fill="#292D32"/>
<path d="M29.7917 38.5937C28.6812 38.5937 27.7604 37.6728 27.7604 36.5624V23.0208C27.7604 21.9103 28.6812 20.9895 29.7917 20.9895C30.9021 20.9895 31.8229 21.9103 31.8229 23.0208V36.5624C31.8229 37.6728 30.9021 38.5937 29.7917 38.5937Z" fill="#292D32"/>
<path d="M54.6002 61.7229C54.3836 61.7229 54.1669 61.6958 53.9773 61.6687C52.7044 61.5062 50.4023 60.6396 49.1023 56.7667C48.4252 54.7354 48.669 52.7042 49.7794 51.1604C50.8898 49.6167 52.7586 48.75 54.8982 48.75C57.6607 48.75 59.8273 49.8063 60.8023 51.675C61.7773 53.5437 61.5065 55.9271 59.9627 58.2292C58.0398 61.1271 55.9544 61.7229 54.6002 61.7229ZM52.9752 55.4937C53.4357 56.9021 54.0857 57.6062 54.519 57.6604C54.9523 57.7146 55.7648 57.2 56.6044 55.9812C57.3898 54.8167 57.444 53.9771 57.2544 53.5979C57.0648 53.2188 56.3065 52.8125 54.8982 52.8125C54.0586 52.8125 53.4357 53.0833 53.0836 53.5437C52.7586 54.0042 52.7044 54.7083 52.9752 55.4937Z" fill="#292D32"/>
</svg>
