<svg width="188" height="174" viewBox="0 0 188 174" fill="none" xmlns="http://www.w3.org/2000/svg">
<path d="M58.5 0L75.3875 30.8677H41.6125L58.5 0Z" fill="#0555B2"/>
<rect x="59" width="71" height="128.747" fill="#0F0A33"/>
<path d="M93.575 103L174.613 155.852H12.5367L93.575 103Z" fill="#FEFEFC"/>
<path d="M88.2233 48.1172C88.2233 48.5172 88.1233 48.8932 87.9233 49.2452C87.7313 49.5972 87.4433 49.8932 87.0593 50.1332C86.6833 50.3732 86.2353 50.5172 85.7153 50.5652V51.5372H84.9353V50.5652C84.1833 50.4932 83.5753 50.2572 83.1113 49.8572C82.6473 49.4572 82.4153 48.9292 82.4153 48.2732H83.8793C83.9033 48.5852 84.0033 48.8452 84.1793 49.0532C84.3553 49.2532 84.6073 49.3812 84.9353 49.4372V46.7972C84.3993 46.6612 83.9633 46.5252 83.6273 46.3892C83.2913 46.2452 83.0033 46.0212 82.7633 45.7172C82.5313 45.4132 82.4153 44.9972 82.4153 44.4692C82.4153 43.8052 82.6473 43.2572 83.1113 42.8252C83.5753 42.3852 84.1833 42.1292 84.9353 42.0572V41.0852H85.7153V42.0572C86.4193 42.1212 86.9833 42.3452 87.4073 42.7292C87.8393 43.1052 88.0833 43.6252 88.1393 44.2892H86.6753C86.6513 44.0412 86.5553 43.8212 86.3873 43.6292C86.2193 43.4292 85.9953 43.2932 85.7153 43.2212V45.8132C86.2513 45.9412 86.6873 46.0772 87.0233 46.2212C87.3593 46.3572 87.6433 46.5772 87.8753 46.8812C88.1073 47.1772 88.2233 47.5892 88.2233 48.1172ZM83.8073 44.3972C83.8073 44.7252 83.9033 44.9812 84.0953 45.1652C84.2953 45.3492 84.5753 45.4972 84.9353 45.6092V43.1852C84.5913 43.2252 84.3153 43.3492 84.1073 43.5572C83.9073 43.7652 83.8073 44.0452 83.8073 44.3972ZM85.7153 49.4372C86.0673 49.3812 86.3433 49.2412 86.5433 49.0172C86.7433 48.7852 86.8433 48.5092 86.8433 48.1892C86.8433 47.8692 86.7433 47.6212 86.5433 47.4452C86.3513 47.2612 86.0753 47.1132 85.7153 47.0012V49.4372ZM90.4 37.9932V35.9132H94.56V50.4932H92.26V37.9932H90.4ZM97.6922 43.0132C97.6922 40.7066 98.0789 38.9066 98.8522 37.6132C99.6389 36.3066 100.986 35.6532 102.892 35.6532C104.799 35.6532 106.139 36.3066 106.912 37.6132C107.699 38.9066 108.092 40.7066 108.092 43.0132C108.092 45.3466 107.699 47.1732 106.912 48.4932C106.139 49.7999 104.799 50.4532 102.892 50.4532C100.986 50.4532 99.6389 49.7999 98.8522 48.4932C98.0789 47.1732 97.6922 45.3466 97.6922 43.0132ZM105.852 43.0132C105.852 41.9332 105.779 41.0199 105.632 40.2732C105.499 39.5266 105.219 38.9199 104.792 38.4532C104.366 37.9732 103.732 37.7332 102.892 37.7332C102.052 37.7332 101.419 37.9732 100.992 38.4532C100.566 38.9199 100.279 39.5266 100.132 40.2732C99.9989 41.0199 99.9322 41.9332 99.9322 43.0132C99.9322 44.1332 99.9989 45.0732 100.132 45.8332C100.266 46.5932 100.546 47.2066 100.972 47.6732C101.412 48.1399 102.052 48.3732 102.892 48.3732C103.732 48.3732 104.366 48.1399 104.792 47.6732C105.232 47.2066 105.519 46.5932 105.652 45.8332C105.786 45.0732 105.852 44.1332 105.852 43.0132ZM83.2513 58.2212L79.7153 72.7682H78.2593L81.7823 58.2212H83.2513ZM91.567 63.3302L87.173 73.8602H85.639L87.095 70.3762L84.274 63.3302H85.925L87.94 68.7902L90.033 63.3302H91.567ZM99.2504 66.7362C99.2504 67.0049 99.2331 67.2476 99.1984 67.4642H93.7254C93.7688 68.0362 93.9811 68.4956 94.3624 68.8422C94.7438 69.1889 95.2118 69.3622 95.7664 69.3622C96.5638 69.3622 97.1271 69.0286 97.4564 68.3612H99.0554C98.8388 69.0199 98.4444 69.5616 97.8724 69.9862C97.3091 70.4022 96.6071 70.6102 95.7664 70.6102C95.0818 70.6102 94.4664 70.4586 93.9204 70.1552C93.3831 69.8432 92.9584 69.4099 92.6464 68.8552C92.3431 68.2919 92.1914 67.6419 92.1914 66.9052C92.1914 66.1686 92.3388 65.5229 92.6334 64.9682C92.9368 64.4049 93.3571 63.9716 93.8944 63.6682C94.4404 63.3649 95.0644 63.2132 95.7664 63.2132C96.4424 63.2132 97.0448 63.3606 97.5734 63.6552C98.1021 63.9499 98.5138 64.3659 98.8084 64.9032C99.1031 65.4319 99.2504 66.0429 99.2504 66.7362ZM97.7034 66.2682C97.6948 65.7222 97.4998 65.2846 97.1184 64.9552C96.7371 64.6259 96.2648 64.4612 95.7014 64.4612C95.1901 64.4612 94.7524 64.6259 94.3884 64.9552C94.0244 65.2759 93.8078 65.7136 93.7384 66.2682H97.7034ZM100.215 66.8792C100.215 66.1599 100.362 65.5229 100.657 64.9682C100.96 64.4136 101.368 63.9846 101.879 63.6812C102.399 63.3692 102.971 63.2132 103.595 63.2132C104.158 63.2132 104.648 63.3259 105.064 63.5512C105.489 63.7679 105.827 64.0409 106.078 64.3702V63.3302H107.573V70.4932H106.078V69.4272C105.827 69.7652 105.484 70.0469 105.051 70.2722C104.618 70.4976 104.124 70.6102 103.569 70.6102C102.954 70.6102 102.39 70.4542 101.879 70.1422C101.368 69.8216 100.96 69.3796 100.657 68.8162C100.362 68.2442 100.215 67.5986 100.215 66.8792ZM106.078 66.9052C106.078 66.4112 105.974 65.9822 105.766 65.6182C105.567 65.2542 105.302 64.9769 104.973 64.7862C104.644 64.5956 104.288 64.5002 103.907 64.5002C103.526 64.5002 103.17 64.5956 102.841 64.7862C102.512 64.9682 102.243 65.2412 102.035 65.6052C101.836 65.9606 101.736 66.3852 101.736 66.8792C101.736 67.3732 101.836 67.8066 102.035 68.1792C102.243 68.5519 102.512 68.8379 102.841 69.0372C103.179 69.2279 103.534 69.3232 103.907 69.3232C104.288 69.3232 104.644 69.2279 104.973 69.0372C105.302 68.8466 105.567 68.5692 105.766 68.2052C105.974 67.8326 106.078 67.3992 106.078 66.9052ZM111.001 64.3702C111.218 64.0062 111.504 63.7246 111.859 63.5252C112.223 63.3172 112.652 63.2132 113.146 63.2132V64.7472H112.769C112.189 64.7472 111.747 64.8946 111.443 65.1892C111.149 65.4839 111.001 65.9952 111.001 66.7232V70.4932H109.519V63.3302H111.001V64.3702Z" fill="white"/>
</svg>
