<svg width="188" height="176" viewBox="0 0 188 176" fill="none" xmlns="http://www.w3.org/2000/svg">
<path d="M62.7913 0L77.6296 29.25H47.953L62.7913 0Z" fill="#0555B2"/>
<rect x="63.2306" width="62.3847" height="122" fill="#0F0A33"/>
<path d="M94.423 100L175.463 157H13.3829L94.423 100Z" fill="#FEFEFC"/>
<path d="M75.8835 61V47.9091H84.0014V49.6094H77.8587V53.598H83.4197V55.2919H77.8587V61H75.8835ZM86.1539 61V51.1818H88.0012V52.7415H88.1035C88.2825 52.2131 88.5978 51.7976 89.0495 51.495C89.5055 51.1882 90.0211 51.0348 90.5964 51.0348C90.7157 51.0348 90.8564 51.0391 91.0183 51.0476C91.1845 51.0561 91.3145 51.0668 91.4082 51.0795V52.9077C91.3315 52.8864 91.1951 52.8629 90.9991 52.8374C90.8031 52.8075 90.6071 52.7926 90.411 52.7926C89.9593 52.7926 89.5566 52.8885 89.2029 53.0803C88.8535 53.2678 88.5765 53.5298 88.372 53.8665C88.1674 54.1989 88.0652 54.5781 88.0652 55.0043V61H86.1539ZM96.9421 61.1982C95.9748 61.1982 95.1417 60.9915 94.4428 60.5781C93.7482 60.1605 93.2113 59.5746 92.832 58.8203C92.457 58.0618 92.2695 57.1733 92.2695 56.1548C92.2695 55.1491 92.457 54.2628 92.832 53.4957C93.2113 52.7287 93.7397 52.13 94.4173 51.6996C95.0991 51.2692 95.896 51.054 96.8079 51.054C97.3619 51.054 97.8988 51.1456 98.4187 51.3288C98.9386 51.5121 99.4052 51.7997 99.8185 52.1918C100.232 52.5838 100.558 53.093 100.797 53.7195C101.035 54.3416 101.154 55.098 101.154 55.9886V56.6662H93.3498V55.2344H99.2816C99.2816 54.7315 99.1793 54.2862 98.9748 53.8984C98.7702 53.5064 98.4826 53.1974 98.1119 52.9716C97.7454 52.7457 97.315 52.6328 96.8207 52.6328C96.2837 52.6328 95.815 52.7649 95.4144 53.0291C95.0181 53.2891 94.7113 53.63 94.494 54.0518C94.2809 54.4695 94.1744 54.9233 94.1744 55.4134V56.532C94.1744 57.1882 94.2894 57.7464 94.5195 58.2067C94.7539 58.6669 95.0799 59.0185 95.4975 59.2614C95.9151 59.5 96.4031 59.6193 96.9613 59.6193C97.3235 59.6193 97.6538 59.5682 97.9521 59.4659C98.2504 59.3594 98.5082 59.2017 98.7255 58.9929C98.9428 58.7841 99.109 58.5263 99.2241 58.2195L101.033 58.5455C100.888 59.0781 100.628 59.5447 100.253 59.9453C99.8825 60.3416 99.4158 60.6506 98.8533 60.8722C98.2951 61.0895 97.658 61.1982 96.9421 61.1982ZM107.507 61.1982C106.539 61.1982 105.706 60.9915 105.007 60.5781C104.313 60.1605 103.776 59.5746 103.396 58.8203C103.021 58.0618 102.834 57.1733 102.834 56.1548C102.834 55.1491 103.021 54.2628 103.396 53.4957C103.776 52.7287 104.304 52.13 104.982 51.6996C105.664 51.2692 106.46 51.054 107.372 51.054C107.926 51.054 108.463 51.1456 108.983 51.3288C109.503 51.5121 109.97 51.7997 110.383 52.1918C110.796 52.5838 111.122 53.093 111.361 53.7195C111.6 54.3416 111.719 55.098 111.719 55.9886V56.6662H103.914V55.2344H109.846C109.846 54.7315 109.744 54.2862 109.539 53.8984C109.335 53.5064 109.047 53.1974 108.676 52.9716C108.31 52.7457 107.879 52.6328 107.385 52.6328C106.848 52.6328 106.379 52.7649 105.979 53.0291C105.583 53.2891 105.276 53.63 105.058 54.0518C104.845 54.4695 104.739 54.9233 104.739 55.4134V56.532C104.739 57.1882 104.854 57.7464 105.084 58.2067C105.318 58.6669 105.644 59.0185 106.062 59.2614C106.48 59.5 106.968 59.6193 107.526 59.6193C107.888 59.6193 108.218 59.5682 108.517 59.4659C108.815 59.3594 109.073 59.2017 109.29 58.9929C109.507 58.7841 109.673 58.5263 109.789 58.2195L111.597 58.5455C111.453 59.0781 111.193 59.5447 110.818 59.9453C110.447 60.3416 109.98 60.6506 109.418 60.8722C108.86 61.0895 108.222 61.1982 107.507 61.1982Z" fill="white"/>
</svg>
