<svg width="188" height="177" viewBox="0 0 188 177" fill="none" xmlns="http://www.w3.org/2000/svg">
<path d="M58.5 0L75.3875 30.8677H41.6125L58.5 0Z" fill="#0F0A33"/>
<rect x="59" width="71" height="128.747" fill="#FFBA52"/>
<path d="M93.575 106L174.613 158.852H12.5367L93.575 106Z" fill="#FEFEFC"/>
<path d="M85.9675 48.1172C85.9675 48.5172 85.8675 48.8932 85.6675 49.2452C85.4755 49.5972 85.1875 49.8932 84.8035 50.1332C84.4275 50.3732 83.9795 50.5172 83.4595 50.5652V51.5372H82.6795V50.5652C81.9275 50.4932 81.3195 50.2572 80.8555 49.8572C80.3915 49.4572 80.1595 48.9292 80.1595 48.2732H81.6235C81.6475 48.5852 81.7475 48.8452 81.9235 49.0532C82.0995 49.2532 82.3515 49.3812 82.6795 49.4372V46.7972C82.1435 46.6612 81.7075 46.5252 81.3715 46.3892C81.0355 46.2452 80.7475 46.0212 80.5075 45.7172C80.2755 45.4132 80.1595 44.9972 80.1595 44.4692C80.1595 43.8052 80.3915 43.2572 80.8555 42.8252C81.3195 42.3852 81.9275 42.1292 82.6795 42.0572V41.0852H83.4595V42.0572C84.1635 42.1212 84.7275 42.3452 85.1515 42.7292C85.5835 43.1052 85.8275 43.6252 85.8835 44.2892H84.4195C84.3955 44.0412 84.2995 43.8212 84.1315 43.6292C83.9635 43.4292 83.7395 43.2932 83.4595 43.2212V45.8132C83.9955 45.9412 84.4315 46.0772 84.7675 46.2212C85.1035 46.3572 85.3875 46.5772 85.6195 46.8812C85.8515 47.1772 85.9675 47.5892 85.9675 48.1172ZM81.5515 44.3972C81.5515 44.7252 81.6475 44.9812 81.8395 45.1652C82.0395 45.3492 82.3195 45.4972 82.6795 45.6092V43.1852C82.3355 43.2252 82.0595 43.3492 81.8515 43.5572C81.6515 43.7652 81.5515 44.0452 81.5515 44.3972ZM83.4595 49.4372C83.8115 49.3812 84.0875 49.2412 84.2875 49.0172C84.4875 48.7852 84.5875 48.5092 84.5875 48.1892C84.5875 47.8692 84.4875 47.6212 84.2875 47.4452C84.0955 47.2612 83.8195 47.1132 83.4595 47.0012V49.4372ZM89.7041 47.3932C90.9841 46.2866 91.9908 45.3799 92.7241 44.6732C93.4708 43.9532 94.0908 43.2066 94.5841 42.4332C95.0775 41.6599 95.3241 40.8866 95.3241 40.1132C95.3241 39.3132 95.1308 38.6866 94.7441 38.2332C94.3708 37.7799 93.7775 37.5532 92.9641 37.5532C92.1775 37.5532 91.5641 37.8066 91.1241 38.3132C90.6975 38.8066 90.4708 39.4732 90.4441 40.3132H88.2441C88.2841 38.7932 88.7375 37.6332 89.6041 36.8332C90.4841 36.0199 91.5975 35.6132 92.9441 35.6132C94.3975 35.6132 95.5308 36.0132 96.3441 36.8132C97.1708 37.6132 97.5841 38.6799 97.5841 40.0132C97.5841 40.9732 97.3375 41.8999 96.8441 42.7932C96.3641 43.6732 95.7841 44.4666 95.1041 45.1732C94.4375 45.8666 93.5841 46.6732 92.5441 47.5932L91.6441 48.3932H97.9841V50.2932H88.2641V48.6332L89.7041 47.3932ZM109.387 37.8732H102.687V41.8532C102.967 41.4799 103.38 41.1666 103.927 40.9132C104.487 40.6599 105.08 40.5332 105.707 40.5332C106.827 40.5332 107.734 40.7732 108.427 41.2532C109.134 41.7332 109.634 42.3399 109.927 43.0732C110.234 43.8066 110.387 44.5799 110.387 45.3932C110.387 46.3799 110.194 47.2599 109.807 48.0332C109.434 48.7932 108.867 49.3932 108.107 49.8332C107.36 50.2732 106.44 50.4932 105.347 50.4932C103.894 50.4932 102.727 50.1332 101.847 49.4132C100.967 48.6932 100.44 47.7399 100.267 46.5532H102.487C102.634 47.1799 102.96 47.6799 103.467 48.0532C103.974 48.4132 104.607 48.5932 105.367 48.5932C106.314 48.5932 107.02 48.3066 107.487 47.7332C107.967 47.1599 108.207 46.3999 108.207 45.4532C108.207 44.4932 107.967 43.7599 107.487 43.2532C107.007 42.7332 106.3 42.4732 105.367 42.4732C104.714 42.4732 104.16 42.6399 103.707 42.9732C103.267 43.2932 102.947 43.7332 102.747 44.2932H100.587V35.8732H109.387V37.8732ZM83.2513 58.2212L79.7153 72.7682H78.2593L81.7823 58.2212H83.2513ZM91.567 63.3302L87.173 73.8602H85.639L87.095 70.3762L84.274 63.3302H85.925L87.94 68.7902L90.033 63.3302H91.567ZM99.2504 66.7362C99.2504 67.0049 99.2331 67.2476 99.1984 67.4642H93.7254C93.7688 68.0362 93.9811 68.4956 94.3624 68.8422C94.7438 69.1889 95.2118 69.3622 95.7664 69.3622C96.5638 69.3622 97.1271 69.0286 97.4564 68.3612H99.0554C98.8388 69.0199 98.4444 69.5616 97.8724 69.9862C97.3091 70.4022 96.6071 70.6102 95.7664 70.6102C95.0818 70.6102 94.4664 70.4586 93.9204 70.1552C93.3831 69.8432 92.9584 69.4099 92.6464 68.8552C92.3431 68.2919 92.1914 67.6419 92.1914 66.9052C92.1914 66.1686 92.3388 65.5229 92.6334 64.9682C92.9368 64.4049 93.3571 63.9716 93.8944 63.6682C94.4404 63.3649 95.0644 63.2132 95.7664 63.2132C96.4424 63.2132 97.0448 63.3606 97.5734 63.6552C98.1021 63.9499 98.5138 64.3659 98.8084 64.9032C99.1031 65.4319 99.2504 66.0429 99.2504 66.7362ZM97.7034 66.2682C97.6948 65.7222 97.4998 65.2846 97.1184 64.9552C96.7371 64.6259 96.2648 64.4612 95.7014 64.4612C95.1901 64.4612 94.7524 64.6259 94.3884 64.9552C94.0244 65.2759 93.8078 65.7136 93.7384 66.2682H97.7034ZM100.215 66.8792C100.215 66.1599 100.362 65.5229 100.657 64.9682C100.96 64.4136 101.368 63.9846 101.879 63.6812C102.399 63.3692 102.971 63.2132 103.595 63.2132C104.158 63.2132 104.648 63.3259 105.064 63.5512C105.489 63.7679 105.827 64.0409 106.078 64.3702V63.3302H107.573V70.4932H106.078V69.4272C105.827 69.7652 105.484 70.0469 105.051 70.2722C104.618 70.4976 104.124 70.6102 103.569 70.6102C102.954 70.6102 102.39 70.4542 101.879 70.1422C101.368 69.8216 100.96 69.3796 100.657 68.8162C100.362 68.2442 100.215 67.5986 100.215 66.8792ZM106.078 66.9052C106.078 66.4112 105.974 65.9822 105.766 65.6182C105.567 65.2542 105.302 64.9769 104.973 64.7862C104.644 64.5956 104.288 64.5002 103.907 64.5002C103.526 64.5002 103.17 64.5956 102.841 64.7862C102.512 64.9682 102.243 65.2412 102.035 65.6052C101.836 65.9606 101.736 66.3852 101.736 66.8792C101.736 67.3732 101.836 67.8066 102.035 68.1792C102.243 68.5519 102.512 68.8379 102.841 69.0372C103.179 69.2279 103.534 69.3232 103.907 69.3232C104.288 69.3232 104.644 69.2279 104.973 69.0372C105.302 68.8466 105.567 68.5692 105.766 68.2052C105.974 67.8326 106.078 67.3992 106.078 66.9052ZM111.001 64.3702C111.218 64.0062 111.504 63.7246 111.859 63.5252C112.223 63.3172 112.652 63.2132 113.146 63.2132V64.7472H112.769C112.189 64.7472 111.747 64.8946 111.443 65.1892C111.149 65.4839 111.001 65.9952 111.001 66.7232V70.4932H109.519V63.3302H111.001V64.3702Z" fill="#0F0A33"/>
</svg>
