<svg
  width="90"
  height="90"
  viewBox="0 0 90 90"
  fill="none"
  xmlns="http://www.w3.org/2000/svg"
>
  <path
    d="M62.4375 77.8126C62.4 77.8126 62.3251 77.8126 62.2876 77.8126C60.7501 77.8126 59.4751 76.5376 59.5126 74.9626C59.5126 73.4251 60.825 72.0376 62.3625 72.1876C66.7125 72.1876 70.8376 70.6126 74.0251 67.6876C79.8376 62.5876 80.25 55.3126 78.675 50.1751C77.1 45.0376 72.7126 39.2251 65.1376 38.2501C63.9001 38.1001 62.925 37.1626 62.7 35.9251C61.2375 26.9626 56.3626 20.7751 49.0876 18.5251C41.5126 16.2001 32.775 18.4876 27.3 24.2251C21.975 29.8126 20.7375 37.5751 23.8125 46.1626C24.3375 47.6251 23.5875 49.2376 22.125 49.7626C20.6625 50.2876 19.05 49.5376 18.525 48.0751C14.7375 37.5376 16.4625 27.4501 23.25 20.3626C30.1875 13.1251 41.2126 10.2376 50.7751 13.2001C59.5126 15.9001 65.7001 23.1001 67.9126 33.0751C75.5626 34.8001 81.675 40.5751 84.1125 48.5626C86.7751 57.2626 84.3751 66.1876 77.8501 71.8876C73.5376 75.7126 68.1 77.8126 62.4375 77.8126Z"
    fill="white"
  />
  <path
    d="M20.8875 77.8126C20.8125 77.8126 20.7375 77.8126 20.7 77.8126C9.90005 77.0626 4.98755 68.5876 4.98755 61.0501C4.98755 53.5126 9.90005 45.0751 20.7 44.2876C23.55 44.3251 26.2125 44.8876 28.6125 46.0876C30 46.8001 30.525 48.4876 29.85 49.8751C29.1375 51.2626 27.45 51.7876 26.0625 51.1126C24.4875 50.2876 22.6875 49.9126 20.9625 49.9126C13.875 50.4376 10.65 55.8751 10.65 61.0501C10.65 66.2251 13.875 71.6626 21.1125 72.1876C22.65 72.3001 23.8125 73.6501 23.7375 75.1876C23.5875 76.6876 22.35 77.8126 20.8875 77.8126Z"
    fill="white"
  />
  <path
    d="M59.3249 39.9C58.2749 39.9 57.2999 39.3375 56.8124 38.325C56.0999 36.9375 56.6624 35.25 58.0874 34.5375C60.3749 33.375 62.9624 32.7375 65.5124 32.7H65.5499C67.0874 32.7 68.3249 33.9375 68.3624 35.475C68.3999 37.0125 67.1624 38.325 65.5874 38.325C63.8624 38.3625 62.1374 38.775 60.5624 39.5625C60.1499 39.825 59.7374 39.9 59.3249 39.9Z"
    fill="white"
  />
  <path
    d="M39.7874 84.8251C39.2999 84.8251 38.775 84.7501 38.2874 84.5626C36.6374 83.9251 35.5499 82.3876 35.5499 80.6251V74.7001H34.6124C31.7999 74.7001 30.7874 73.0501 30.4499 72.3751C30.1499 71.6251 29.625 69.7501 31.4625 67.6876L40.65 57.2251C41.8125 55.9126 43.6499 55.4251 45.2999 56.0626C46.9499 56.7001 48.0375 58.2376 48.0375 60.0001V65.9251H48.975C51.75 65.9251 52.7999 67.5751 53.1374 68.2501C53.475 68.9251 53.9999 70.8001 52.1624 72.9001L42.9749 83.3626C42.1124 84.3001 40.9499 84.8251 39.7874 84.8251ZM37.725 69.0376H38.3624C39.8999 69.0376 41.1749 70.3126 41.1749 71.8501V76.8376L45.825 71.5501H45.1875C43.65 71.5501 42.375 70.2751 42.375 68.7376V63.7501L37.725 69.0376Z"
    fill="white"
  />
</svg>
