<svg
  width="90"
  height="90"
  viewBox="0 0 90 90"
  fill="none"
  xmlns="http://www.w3.org/2000/svg"
>
  <path
    d="M45 85.3499C40.9125 85.3499 36.8625 84.1499 33.675 81.7874L17.55 69.7499C13.275 66.5624 9.9375 59.8874 9.9375 54.5999V26.6999C9.9375 20.9249 14.175 14.7749 19.6125 12.7499L38.325 5.7374C42.0375 4.3499 47.8875 4.3499 51.6 5.7374L70.3125 12.7499C75.75 14.7749 79.9875 20.9249 79.9875 26.6999V54.5624C79.9875 59.8874 76.65 66.5249 72.375 69.7124L56.25 81.7499C53.1375 84.1499 49.0875 85.3499 45 85.3499ZM40.3125 11.0249L21.6 18.0374C18.4125 19.2374 15.6 23.2874 15.6 26.7374V54.5999C15.6 58.1624 18.1125 63.1499 20.925 65.2499L37.05 77.2874C41.3625 80.5124 48.6375 80.5124 52.9875 77.2874L69.1125 65.2499C71.9625 63.1124 74.4375 58.1624 74.4375 54.5999V26.6999C74.4375 23.2874 71.625 19.2374 68.4375 17.9999L49.725 10.9874C47.175 10.0874 42.825 10.0874 40.3125 11.0249Z"
    fill="white"
  />
  <path
    d="M39.975 53.3625C39.2625 53.3625 38.55 53.1 37.9875 52.5375L31.95 46.5C30.8625 45.4125 30.8625 43.6125 31.95 42.525C33.0375 41.4375 34.8375 41.4375 35.925 42.525L39.975 46.575L54.1125 32.4375C55.2 31.35 57 31.35 58.0875 32.4375C59.175 33.525 59.175 35.325 58.0875 36.4125L41.9625 52.5375C41.4 53.1 40.6875 53.3625 39.975 53.3625Z"
    fill="white"
  />
</svg>
