<svg width="90" height="90" viewBox="0 0 90 90" fill="none" xmlns="http://www.w3.org/2000/svg">
<path d="M56.25 85.3125H33.75C13.3875 85.3125 4.6875 76.6125 4.6875 56.25V33.75C4.6875 13.3875 13.3875 4.6875 33.75 4.6875H56.25C76.6125 4.6875 85.3125 13.3875 85.3125 33.75V48.75C85.3125 50.2875 84.0375 51.5625 82.5 51.5625C80.9625 51.5625 79.6875 50.2875 79.6875 48.75V33.75C79.6875 16.4625 73.5375 10.3125 56.25 10.3125H33.75C16.4625 10.3125 10.3125 16.4625 10.3125 33.75V56.25C10.3125 73.5375 16.4625 79.6875 33.75 79.6875H56.25C57.7875 79.6875 59.0625 80.9625 59.0625 82.5C59.0625 84.0375 57.7875 85.3125 56.25 85.3125Z" fill="white"/>
<path d="M71.2499 85.3126C69.7124 85.3126 68.4374 84.0376 68.4374 82.5001V66.7876L65.7374 69.4876C64.6499 70.5751 62.8499 70.5751 61.7624 69.4876C60.6749 68.4001 60.6749 66.6001 61.7624 65.5126L69.2624 58.0126C70.0499 57.2251 71.2874 56.9626 72.3374 57.4126C73.3874 57.8626 74.0624 58.8751 74.0624 60.0001V82.5001C74.0624 84.0376 72.7874 85.3126 71.2499 85.3126Z" fill="white"/>
<path d="M78.7499 70.3124C78.0374 70.3124 77.3249 70.0499 76.7624 69.4874L69.2624 61.9874C68.1749 60.8999 68.1749 59.0999 69.2624 58.0124C70.3499 56.9249 72.1499 56.9249 73.2374 58.0124L80.7374 65.5124C81.8249 66.5999 81.8249 68.3999 80.7374 69.4874C80.1749 70.0499 79.4624 70.3124 78.7499 70.3124Z" fill="white"/>
<path d="M33.375 61.8376C33.2625 61.8376 33.15 61.8376 33.075 61.8376C31.5375 61.6501 30.4125 60.2626 30.6 58.7251L34.5 23.1751C34.6875 21.6376 36.075 20.5126 37.6125 20.7001C39.15 20.8876 40.275 22.2751 40.0875 23.8126L36.15 59.3251C36 60.7501 34.7625 61.8376 33.375 61.8376Z" fill="white"/>
<path d="M45.1875 61.8375C45.075 61.8375 44.9625 61.8375 44.8875 61.8375C43.35 61.65 42.225 60.2625 42.4125 58.725L46.35 23.2125C46.5375 21.675 47.925 20.55 49.4625 20.7375C51 20.925 52.125 22.3125 51.9375 23.85L48 59.3625C47.85 60.75 46.6125 61.8375 45.1875 61.8375Z" fill="white"/>
<path d="M60 38.1375H24.4875C22.95 38.1375 21.675 36.8625 21.675 35.325C21.675 33.7875 22.95 32.5125 24.4875 32.5125H60C61.5375 32.5125 62.8125 33.7875 62.8125 35.325C62.8125 36.8625 61.5375 38.1375 60 38.1375Z" fill="white"/>
<path d="M58.0125 49.9875H22.5C20.9625 49.9875 19.6875 48.7125 19.6875 47.175C19.6875 45.6375 20.9625 44.3625 22.5 44.3625H58.0125C59.55 44.3625 60.825 45.6375 60.825 47.175C60.825 48.7125 59.5875 49.9875 58.0125 49.9875Z" fill="white"/>
</svg>
