<svg width="90" height="90" viewBox="0 0 90 90" fill="none" xmlns="http://www.w3.org/2000/svg">
<path d="M54 77.8125H36C19.5375 77.8125 12.1875 70.4625 12.1875 54V36C12.1875 19.5375 19.5375 12.1875 36 12.1875H54C70.4625 12.1875 77.8125 19.5375 77.8125 36V54C77.8125 70.4625 70.4625 77.8125 54 77.8125ZM36 17.8125C22.575 17.8125 17.8125 22.575 17.8125 36V54C17.8125 67.425 22.575 72.1875 36 72.1875H54C67.425 72.1875 72.1875 67.425 72.1875 54V36C72.1875 22.575 67.425 17.8125 54 17.8125H36Z" fill="white"/>
<path d="M50.625 66.5625H39.375C28.5 66.5625 23.4375 61.5 23.4375 50.625V39.375C23.4375 28.5 28.5 23.4375 39.375 23.4375H50.625C61.5 23.4375 66.5625 28.5 66.5625 39.375V50.625C66.5625 61.5 61.5 66.5625 50.625 66.5625ZM39.375 29.0625C31.575 29.0625 29.0625 31.575 29.0625 39.375V50.625C29.0625 58.425 31.575 60.9375 39.375 60.9375H50.625C58.425 60.9375 60.9375 58.425 60.9375 50.625V39.375C60.9375 31.575 58.425 29.0625 50.625 29.0625H39.375Z" fill="white"/>
<path d="M30.0375 17.8125C28.4625 17.8125 27.225 16.5375 27.225 15V7.5C27.225 5.9625 28.5 4.6875 30.0375 4.6875C31.575 4.6875 32.85 5.9625 32.85 7.5V15C32.85 16.5375 31.575 17.8125 30.0375 17.8125Z" fill="white"/>
<path d="M45 17.8125C43.4625 17.8125 42.1875 16.5375 42.1875 15V7.5C42.1875 5.9625 43.4625 4.6875 45 4.6875C46.5375 4.6875 47.8125 5.9625 47.8125 7.5V15C47.8125 16.5375 46.5375 17.8125 45 17.8125Z" fill="white"/>
<path d="M60 17.8125C58.4625 17.8125 57.1875 16.5375 57.1875 15V7.5C57.1875 5.9625 58.4625 4.6875 60 4.6875C61.5375 4.6875 62.8125 5.9625 62.8125 7.5V15C62.8125 16.5375 61.5375 17.8125 60 17.8125Z" fill="white"/>
<path d="M82.5 32.8125H75C73.4625 32.8125 72.1875 31.5375 72.1875 30C72.1875 28.4625 73.4625 27.1875 75 27.1875H82.5C84.0375 27.1875 85.3125 28.4625 85.3125 30C85.3125 31.5375 84.075 32.8125 82.5 32.8125Z" fill="white"/>
<path d="M82.5 47.8125H75C73.4625 47.8125 72.1875 46.5375 72.1875 45C72.1875 43.4625 73.4625 42.1875 75 42.1875H82.5C84.0375 42.1875 85.3125 43.4625 85.3125 45C85.3125 46.5375 84.075 47.8125 82.5 47.8125Z" fill="white"/>
<path d="M82.5 62.8125H75C73.4625 62.8125 72.1875 61.5375 72.1875 60C72.1875 58.4625 73.4625 57.1875 75 57.1875H82.5C84.0375 57.1875 85.3125 58.4625 85.3125 60C85.3125 61.5375 84.075 62.8125 82.5 62.8125Z" fill="white"/>
<path d="M60 85.3125C58.4625 85.3125 57.1875 84.0375 57.1875 82.5V75C57.1875 73.4625 58.4625 72.1875 60 72.1875C61.5375 72.1875 62.8125 73.4625 62.8125 75V82.5C62.8125 84.0375 61.5375 85.3125 60 85.3125Z" fill="white"/>
<path d="M45.0375 85.3125C43.5 85.3125 42.225 84.0375 42.225 82.5V75C42.225 73.4625 43.5 72.1875 45.0375 72.1875C46.575 72.1875 47.85 73.4625 47.85 75V82.5C47.85 84.0375 46.575 85.3125 45.0375 85.3125Z" fill="white"/>
<path d="M30.0375 85.3125C28.5 85.3125 27.225 84.0375 27.225 82.5V75C27.225 73.4625 28.5 72.1875 30.0375 72.1875C31.575 72.1875 32.85 73.4625 32.85 75V82.5C32.85 84.0375 31.575 85.3125 30.0375 85.3125Z" fill="white"/>
<path d="M15 32.8125H7.5C5.9625 32.8125 4.6875 31.575 4.6875 30C4.6875 28.425 5.9625 27.1875 7.5 27.1875H15C16.5375 27.1875 17.8125 28.4625 17.8125 30C17.8125 31.5375 16.575 32.8125 15 32.8125Z" fill="white"/>
<path d="M15 47.8125H7.5C5.9625 47.8125 4.6875 46.5375 4.6875 45C4.6875 43.4625 5.9625 42.1875 7.5 42.1875H15C16.5375 42.1875 17.8125 43.4625 17.8125 45C17.8125 46.5375 16.575 47.8125 15 47.8125Z" fill="white"/>
<path d="M15 62.8125H7.5C5.9625 62.8125 4.6875 61.5375 4.6875 60C4.6875 58.4625 5.9625 57.1875 7.5 57.1875H15C16.5375 57.1875 17.8125 58.4625 17.8125 60C17.8125 61.5375 16.575 62.8125 15 62.8125Z" fill="white"/>
<path d="M45 56.4376C44.5125 56.4376 44.025 56.3251 43.6125 56.0626C42.2625 55.2751 41.8125 53.5501 42.5625 52.2376L45.1125 47.8126H42.9C41.1 47.8126 39.6375 47.0251 38.85 45.6751C38.0625 44.3251 38.1375 42.6376 39 41.1001L42.525 34.9501C43.3125 33.6001 45.0375 33.1501 46.35 33.9001C47.7 34.6876 48.15 36.4126 47.4 37.7251L44.85 42.1501H47.0625C48.8625 42.1501 50.325 42.9376 51.1125 44.2876C51.9 45.6376 51.825 47.3251 50.9625 48.8626L47.4375 55.0126C46.9125 55.9501 45.975 56.4376 45 56.4376Z" fill="white"/>
</svg>
