<svg width="58" height="10" viewBox="0 0 58 10" fill="none" xmlns="http://www.w3.org/2000/svg">
<path d="M4.46355 0.547302L3.24299 3.02206L0.512158 3.42019C0.0224388 3.49122 -0.173823 4.09496 0.181317 4.44075L2.15701 6.36598L1.68973 9.08561C1.60561 9.57719 2.12337 9.94542 2.55701 9.71551L5 8.4314L7.44299 9.71551C7.87663 9.94355 8.39439 9.57719 8.31028 9.08561L7.84299 6.36598L9.81868 4.44075C10.1738 4.09496 9.97756 3.49122 9.48784 3.42019L6.75701 3.02206L5.53645 0.547302C5.31776 0.106181 4.68411 0.100574 4.46355 0.547302Z" fill="#FFBA52"/>
<path d="M16.4636 0.547302L15.243 3.02206L12.5122 3.42019C12.0224 3.49122 11.8262 4.09496 12.1813 4.44075L14.157 6.36598L13.6897 9.08561C13.6056 9.57719 14.1234 9.94542 14.557 9.71551L17 8.4314L19.443 9.71551C19.8766 9.94355 20.3944 9.57719 20.3103 9.08561L19.843 6.36598L21.8187 4.44075C22.1738 4.09496 21.9776 3.49122 21.4878 3.42019L18.757 3.02206L17.5364 0.547302C17.3178 0.106181 16.6841 0.100574 16.4636 0.547302Z" fill="#FFBA52"/>
<path d="M28.4636 0.547302L27.243 3.02206L24.5122 3.42019C24.0224 3.49122 23.8262 4.09496 24.1813 4.44075L26.157 6.36598L25.6897 9.08561C25.6056 9.57719 26.1234 9.94542 26.557 9.71551L29 8.4314L31.443 9.71551C31.8766 9.94355 32.3944 9.57719 32.3103 9.08561L31.843 6.36598L33.8187 4.44075C34.1738 4.09496 33.9776 3.49122 33.4878 3.42019L30.757 3.02206L29.5364 0.547302C29.3178 0.106181 28.6841 0.100574 28.4636 0.547302Z" fill="#FFBA52"/>
<path d="M40.4636 0.547302L39.243 3.02206L36.5122 3.42019C36.0224 3.49122 35.8262 4.09496 36.1813 4.44075L38.157 6.36598L37.6897 9.08561C37.6056 9.57719 38.1234 9.94542 38.557 9.71551L41 8.4314L43.443 9.71551C43.8766 9.94355 44.3944 9.57719 44.3103 9.08561L43.843 6.36598L45.8187 4.44075C46.1738 4.09496 45.9776 3.49122 45.4878 3.42019L42.757 3.02206L41.5364 0.547302C41.3178 0.106181 40.6841 0.100574 40.4636 0.547302Z" fill="#FFBA52"/>
<path d="M57.4878 3.41413L54.7571 3.01656L53.5368 0.546628C53.4271 0.325921 53.2131 0.214355 52.9991 0.214355C52.7864 0.214355 52.5739 0.324429 52.4638 0.546628L51.2431 3.01638L48.5122 3.41357C48.0225 3.48447 47.8262 4.08689 48.1812 4.43203L50.1568 6.35365L49.6892 9.0678C49.6228 9.45548 49.9323 9.76648 50.279 9.76648C50.371 9.76648 50.4655 9.74466 50.5564 9.69652L52.9995 8.41519L55.4423 9.6969C55.533 9.74447 55.6274 9.76611 55.719 9.76611C56.066 9.76611 56.3761 9.45623 56.3097 9.06836L55.8427 6.35402L57.8186 4.43278C58.1738 4.08763 57.9776 3.48503 57.4878 3.41413ZM55.2166 5.71261L54.8785 6.04134L54.9584 6.50551L55.3226 8.62209L53.4172 7.62229L52.9997 7.40326L53.0002 1.48561L53.9523 3.41264L54.1608 3.83484L54.6274 3.90275L56.7586 4.213L55.2166 5.71261Z" fill="#FFBA52"/>
</svg>
