<svg width="65" height="65" viewBox="0 0 65 65" fill="none" xmlns="http://www.w3.org/2000/svg">
<path d="M19.6628 51.1603C19.4461 51.1603 19.2295 51.1331 19.0128 51.1061C17.3878 50.8894 16.0066 49.8602 15.3295 48.3977L11.917 40.8956C6.50031 36.8873 3.38574 30.9019 3.38574 24.4019C3.38574 12.8374 13.4066 3.41235 25.7295 3.41235C34.4232 3.41235 42.3587 8.17899 45.9607 15.5727C47.342 18.3082 48.0732 21.2874 48.0732 24.4019C48.0732 35.6686 38.567 44.904 26.7045 45.3644L23.292 49.4811C22.3712 50.5374 21.0441 51.1603 19.6628 51.1603ZM25.7295 7.44774C15.6545 7.44774 7.44824 15.0311 7.44824 24.3748C7.44824 29.7102 10.1024 34.6394 14.7066 37.8894C15.0045 38.1061 15.2482 38.3769 15.3836 38.7019L19.0128 46.6915C19.1483 46.9894 19.4191 47.0707 19.5545 47.0707C19.6899 47.0978 19.9607 47.0706 20.1503 46.854L24.1587 42.0332C24.5378 41.5728 25.1066 41.3019 25.7295 41.3019C35.8045 41.3019 44.0107 33.7186 44.0107 24.3748C44.0107 21.9102 43.442 19.5539 42.3316 17.3602C39.4066 11.3206 32.8795 7.44774 25.7295 7.44774Z" fill="#292D32"/>
<path d="M45.3381 61.6149C43.9297 61.6149 42.6297 60.992 41.7089 59.9086L38.2964 55.819C31.7422 55.5482 25.5672 52.5419 21.613 47.6669C20.9901 46.9086 21.0172 45.8254 21.6401 45.0941L24.1589 42.0608C24.538 41.6004 25.1068 41.3295 25.7297 41.3295C35.8047 41.3295 44.011 33.7462 44.011 24.4024C44.011 21.9379 43.4422 19.5815 42.3318 17.3878C41.9797 16.6836 42.061 15.8441 42.5485 15.2212C43.036 14.5982 43.8485 14.3274 44.6068 14.4899C54.6276 16.7919 61.6151 25.1607 61.6151 34.8566C61.6151 41.3566 58.5006 47.3421 53.0839 51.3504L49.6714 58.8524C48.9672 60.369 47.586 61.3982 45.9339 61.5878C45.7443 61.6149 45.5276 61.6149 45.3381 61.6149ZM25.8922 46.3128C29.2776 49.7523 34.1526 51.7565 39.2714 51.7565C39.8672 51.7565 40.436 52.0274 40.8422 52.4878L44.8505 57.3086C45.0401 57.5523 45.2839 57.5795 45.4464 57.5524C45.5547 57.5524 45.8526 57.4711 46.0151 57.1461L49.6443 49.1566C49.8068 48.8316 50.0235 48.5336 50.3214 48.344C54.9256 45.094 57.5797 40.1649 57.5797 34.8295C57.5797 28.3295 53.5985 22.5608 47.5318 19.7171C47.911 21.2337 48.1005 22.7774 48.1005 24.3753C48.1005 35.642 38.5943 44.8774 26.7318 45.3378L25.8922 46.3128Z" fill="#292D32"/>
<path d="M32.4997 26.4062H18.958C17.8476 26.4062 16.9268 25.4854 16.9268 24.375C16.9268 23.2646 17.8476 22.3438 18.958 22.3438H32.4997C33.6101 22.3438 34.5309 23.2646 34.5309 24.375C34.5309 25.4854 33.6101 26.4062 32.4997 26.4062Z" fill="#292D32"/>
</svg>
