<svg width="90" height="90" viewBox="0 0 90 90" fill="none" xmlns="http://www.w3.org/2000/svg">
<path d="M48.9375 60.9374H41.8876C36.9001 60.9374 32.8125 56.7374 32.8125 51.5624C32.8125 50.0249 34.0875 48.7499 35.625 48.7499C37.1625 48.7499 38.4375 50.0249 38.4375 51.5624C38.4375 53.6249 39.9751 55.3124 41.8876 55.3124H48.9375C50.4 55.3124 51.5625 53.9999 51.5625 52.3874C51.5625 50.3624 51 50.0624 49.725 49.6124L38.4375 45.6749C36.0375 44.8499 32.8125 43.0875 32.8125 37.575C32.8125 32.8875 36.525 29.025 41.0625 29.025H48.1124C53.0999 29.025 57.1875 33.225 57.1875 38.4C57.1875 39.9375 55.9125 41.2125 54.375 41.2125C52.8375 41.2125 51.5625 39.9375 51.5625 38.4C51.5625 36.3375 50.025 34.65 48.1124 34.65H41.0625C39.6 34.65 38.4375 35.9625 38.4375 37.575C38.4375 39.6 39 39.8999 40.275 40.3499L51.5625 44.2874C53.9625 45.1124 57.1875 46.8749 57.1875 52.3874C57.1875 57.1124 53.475 60.9374 48.9375 60.9374Z" fill="#292D32"/>
<path d="M45 64.6875C43.4625 64.6875 42.1875 63.4125 42.1875 61.875V28.125C42.1875 26.5875 43.4625 25.3125 45 25.3125C46.5375 25.3125 47.8125 26.5875 47.8125 28.125V61.875C47.8125 63.4125 46.5375 64.6875 45 64.6875Z" fill="#292D32"/>
<path d="M45 85.3125C22.7625 85.3125 4.6875 67.2375 4.6875 45C4.6875 22.7625 22.7625 4.6875 45 4.6875C46.5375 4.6875 47.8125 5.9625 47.8125 7.5C47.8125 9.0375 46.5375 10.3125 45 10.3125C25.875 10.3125 10.3125 25.875 10.3125 45C10.3125 64.125 25.875 79.6875 45 79.6875C64.125 79.6875 79.6875 64.125 79.6875 45C79.6875 43.4625 80.9625 42.1875 82.5 42.1875C84.0375 42.1875 85.3125 43.4625 85.3125 45C85.3125 67.2375 67.2375 85.3125 45 85.3125Z" fill="#292D32"/>
<path d="M78.75 29.0625H63.75C62.2125 29.0625 60.9375 27.7875 60.9375 26.25V11.25C60.9375 9.7125 62.2125 8.4375 63.75 8.4375C65.2875 8.4375 66.5625 9.7125 66.5625 11.25V23.4375H78.75C80.2875 23.4375 81.5625 24.7125 81.5625 26.25C81.5625 27.7875 80.2875 29.0625 78.75 29.0625Z" fill="#292D32"/>
<path d="M63.7498 29.0625C63.0373 29.0625 62.3248 28.8 61.7623 28.2375C60.6748 27.15 60.6748 25.35 61.7623 24.2625L80.5123 5.51252C81.5998 4.42502 83.3998 4.42502 84.4873 5.51252C85.5748 6.60002 85.5748 8.40002 84.4873 9.48751L65.7373 28.2375C65.1748 28.8 64.4623 29.0625 63.7498 29.0625Z" fill="#292D32"/>
</svg>
