<svg width="90" height="90" viewBox="0 0 90 90" fill="none" xmlns="http://www.w3.org/2000/svg">
<path d="M45.0371 85.3125C42.6746 85.3125 40.3121 84.525 38.4746 82.95L32.5496 77.85C31.9496 77.325 30.4496 76.7999 29.6621 76.7999H23.1746C17.6246 76.7999 13.1246 72.3002 13.1246 66.7502V60.3374C13.1246 59.5499 12.5996 58.0873 12.0746 57.4873L7.01206 51.5249C3.93706 47.8874 3.93706 42.1501 7.01206 38.5126L12.0746 32.5502C12.5996 31.9502 13.1246 30.4876 13.1246 29.7001V23.2873C13.1246 17.7373 17.6246 13.2376 23.1746 13.2376H29.6621C30.4496 13.2376 31.9496 12.675 32.5496 12.1875L38.4746 7.08754C42.1496 3.93754 47.8871 3.93754 51.5621 7.08754L57.487 12.1875C58.087 12.7125 59.5871 13.2376 60.3746 13.2376H66.7495C72.2995 13.2376 76.7996 17.7373 76.7996 23.2873V29.6626C76.7996 30.4501 77.362 31.9502 77.887 32.5502L82.9496 38.475C86.0996 42.15 86.0996 47.8875 82.9496 51.5625L77.887 57.4873C77.362 58.0873 76.837 59.5874 76.837 60.3749V66.7502C76.837 72.3002 72.3371 76.7999 66.7871 76.7999H60.412C59.6245 76.7999 58.1246 77.3625 57.5246 77.85L51.5996 82.95C49.7246 84.525 47.3621 85.3125 45.0371 85.3125ZM23.1746 18.8251C20.7371 18.8251 18.7496 20.8123 18.7496 23.2498V29.6626C18.7496 31.8001 17.7371 34.5375 16.3871 36.15L11.3245 42.1124C10.012 43.6499 10.012 46.3125 11.3245 47.85L16.3871 53.8124C17.7746 55.4624 18.7871 58.1998 18.7871 60.2998V66.7126C18.7871 69.1501 20.7746 71.1374 23.2121 71.1374H29.6996C31.8746 71.1374 34.6121 72.15 36.2621 73.575L42.1871 78.6749C43.7246 79.9874 46.4246 79.9874 47.9621 78.6749L53.8871 73.575C55.5371 72.1875 58.2746 71.1374 60.4496 71.1374H66.8246C69.2621 71.1374 71.2496 69.1501 71.2496 66.7126V60.3374C71.2496 58.1624 72.2621 55.4249 73.6871 53.7749L78.7496 47.85C80.0621 46.3125 80.0621 43.6124 78.7496 42.0749L73.6871 36.15C72.2996 34.5 71.2496 31.7625 71.2496 29.5875V23.2123C71.2496 20.7748 69.2621 18.7875 66.8246 18.7875H60.4496C58.3121 18.7875 55.5371 17.7749 53.8871 16.3499L47.9621 11.25C46.4246 9.93748 43.7246 9.93748 42.1871 11.25L36.2621 16.3499C34.6121 17.7374 31.8746 18.7875 29.6996 18.7875H23.1746V18.8251Z" fill="#292D32"/>
<path d="M52.4991 63.6373H45.8241C44.2491 63.6373 41.8865 63.1498 40.499 61.7623L35.3241 57.7876L38.7741 53.3248L44.2116 57.5248C44.5866 57.7873 45.2616 57.9748 45.8241 57.9748H52.4991C53.3991 57.9748 54.4865 57.1876 54.674 56.4001L58.9491 43.3872C59.0616 43.0497 59.0615 42.825 59.024 42.75C58.949 42.6375 58.6865 42.5248 58.3115 42.5248H51.2991C49.9491 42.5248 48.7116 41.9626 47.8116 40.9501C46.9491 39.9376 46.5366 38.5876 46.7241 37.2001L47.6241 31.5376C47.6991 31.2376 47.4741 30.8623 47.2491 30.7873C47.0241 30.7498 46.6866 30.8249 46.5741 30.9374L39.4116 41.5873L34.7241 38.4374L41.9241 27.75C43.4241 25.5 46.5741 24.5251 49.1241 25.4626C51.9741 26.4001 53.8116 29.6251 53.1741 32.5501L52.4991 36.8247H58.3115C60.524 36.8247 62.4741 37.7625 63.6366 39.4125C64.7616 41.025 65.0241 43.125 64.3116 45.1125L60.1116 57.8626C59.3241 61.0876 55.9866 63.6373 52.4991 63.6373Z" fill="#292D32"/>
<path d="M33.3759 61.7249H31.6134C26.1009 61.7249 25.2759 57.8623 25.2759 55.5748V38.4C25.2759 36.1125 26.1009 32.2499 31.6134 32.2499H33.3759C38.8884 32.2499 39.7134 36.1125 39.7134 38.4V55.5748C39.7134 57.8623 38.8884 61.7249 33.3759 61.7249ZM30.976 56.0623C31.126 56.0998 31.3509 56.0999 31.6509 56.0999H33.4134C33.7134 56.0999 33.9384 56.0998 34.0884 56.0623C34.0884 55.9498 34.1259 55.7998 34.1259 55.5748V38.4C34.1259 38.175 34.1259 38.0249 34.0884 37.9124C33.9384 37.8749 33.7134 37.8749 33.4134 37.8749H31.6509C31.3509 37.8749 31.126 37.8749 30.976 37.9124C30.976 38.0249 30.9384 38.175 30.9384 38.4V55.5748C30.9384 55.7998 30.9385 55.9498 30.976 56.0623Z" fill="#292D32"/>
</svg>